<?xml version="1.0" encoding="UTF-8"?>
<svg width="420px" height="160px" viewBox="0 0 420 160" version="1.1" xmlns="http://www.w3.org/2000/svg" xmlns:xlink="http://www.w3.org/1999/xlink">
    <!-- Generator: Sketch 61 (89581) - https://sketch.com -->
    <title>codeTeacher-logo-horizontal-azul</title>
    <desc>Created with Sketch.</desc>
    <defs>
        <polygon id="path-1" points="0 0.7355 84.8725 0.7355 84.8725 113.7945 0 113.7945"></polygon>
    </defs>
    <g id="codeTeacher-logo-horizontal-azul" stroke="none" stroke-width="1" fill="none" fill-rule="evenodd">
        <g id="Group-36" transform="translate(20.000000, 13.000000)">
            <path d="M48.912,112.0752 L48.912,50.2452 C48.912,49.1502 49.801,48.2622 50.896,48.2622 L140.65,48.2622 C141.746,48.2622 142.635,49.1502 142.635,50.2452 L142.635,112.0752 C142.635,113.1712 141.746,114.0592 140.65,114.0592 L50.896,114.0592 C49.801,114.0592 48.912,113.1712 48.912,112.0752 M158.682,114.0592 L148.919,114.0592 L148.919,44.6182 C148.919,43.0532 147.649,41.7842 146.084,41.7842 L45.463,41.7842 C43.897,41.7842 42.628,43.0532 42.628,44.6182 L42.628,114.0592 L32.865,114.0592 C31.3,114.0592 30.03,115.3282 30.03,116.8932 L30.03,121.4302 C30.03,122.9962 31.3,124.2642 32.865,124.2642 L158.682,124.2642 C160.247,124.2642 161.516,122.9962 161.516,121.4302 L161.516,116.8932 C161.516,115.3282 160.247,114.0592 158.682,114.0592" id="Fill-1" fill="#172D54"></path>
            <path d="M69.4599,27.5274 C69.4599,27.5274 58.0279,32.0534 48.1479,38.9714 C35.8009,47.6174 30.1989,55.0194 30.1989,55.0194 L37.5709,65.5484 C38.0559,66.2394 39.0329,66.3904 39.7539,65.8844 L76.4019,40.2224 C77.1239,39.7174 77.3169,38.7474 76.8329,38.0564 L69.4599,27.5274 Z" id="Fill-3" fill="#172D54"></path>
            <g id="Group-7" transform="translate(0.000000, 0.265000)">
                <mask id="mask-2" fill="white">
                    <use xlink:href="#path-1"></use>
                </mask>
                <g id="Clip-6"></g>
                <path d="M28.6845,52.5905 C28.6845,52.5905 34.3335,45.1565 46.6805,36.5115 C56.5615,29.5925 67.9455,25.0995 67.9455,25.0995 L84.8725,0.7355 L32.6005,16.4025 L-0.0005,60.1645 L6.3855,58.4785 L6.3855,90.2575 C5.2125,90.7035 4.3755,91.8295 4.3755,93.1585 C4.3755,94.3185 5.0175,95.3175 5.9565,95.8525 L3.4885,108.9205 C3.0095,111.4515 4.9515,113.7945 7.5275,113.7945 C10.1035,113.7945 12.0445,111.4515 11.5665,108.9205 L9.0895,95.8145 C9.9915,95.2695 10.5995,94.2885 10.5995,93.1585 C10.5995,91.8295 9.7625,90.7025 8.5895,90.2575 L8.5885,57.8965 L28.6845,52.5905 Z" id="Fill-5" fill="#172D54" mask="url(#mask-2)"></path>
            </g>
            <polygon id="Fill-8" fill="#172D54" points="103.8827 65.1631 81.5967 100.8431 87.3827 100.8431 109.6697 65.1631"></polygon>
            <polygon id="Fill-10" fill="#172D54" points="117.0604 69.1333 113.5394 72.6693 123.5534 82.6403 109.5084 92.8343 112.4394 96.8723 131.2344 83.2293"></polygon>
            <polygon id="Fill-12" fill="#172D54" points="82.038 73.1597 79.107 69.1217 60.312 82.7637 74.177 96.8837 77.715 93.3667 67.857 83.4527"></polygon>
            <path d="M173.2128,65.5943 L173.2128,65.4643 C173.2128,52.4463 182.9598,41.7843 196.8268,41.7843 C205.2658,41.7843 210.3668,44.7283 214.7498,48.9143 L209.5828,54.8663 C205.9198,51.4653 201.9938,49.1763 196.7618,49.1763 C187.9958,49.1763 181.6508,56.3713 181.6508,65.3333 L181.6508,65.4643 C181.6508,74.4253 187.9958,81.7513 196.7618,81.7513 C202.3868,81.7513 205.9838,79.4623 209.9098,75.7993 L215.0778,81.0323 C210.3028,86.0043 205.0688,89.1433 196.4998,89.1433 C183.1548,89.1433 173.2128,78.7423 173.2128,65.5943" id="Fill-14" fill="#172D54"></path>
            <path d="M262.245,65.5943 L262.245,65.4643 C262.245,56.5673 255.769,49.1763 246.677,49.1763 C237.585,49.1763 231.239,56.4373 231.239,65.3333 L231.239,65.4643 C231.239,74.3603 237.716,81.7513 246.808,81.7513 C255.9,81.7513 262.245,74.4903 262.245,65.5943 M222.802,65.5943 L222.802,65.4643 C222.802,52.5773 232.744,41.7843 246.808,41.7843 C260.872,41.7843 270.683,52.4463 270.683,65.3333 L270.683,65.4643 C270.683,78.3503 260.741,89.1433 246.677,89.1433 C232.613,89.1433 222.802,78.4813 222.802,65.5943" id="Fill-16" fill="#172D54"></path>
            <path d="M300.1239,81.0318 C309.7399,81.0318 316.0199,74.5558 316.0199,65.5938 L316.0199,65.4638 C316.0199,56.5018 309.7399,49.8948 300.1239,49.8948 L291.0979,49.8948 L291.0979,81.0318 L300.1239,81.0318 Z M283.0519,42.5688 L300.1239,42.5688 C314.5159,42.5688 324.4579,52.4468 324.4579,65.3328 L324.4579,65.4638 C324.4579,78.3498 314.5159,88.3588 300.1239,88.3588 L283.0519,88.3588 L283.0519,42.5688 Z" id="Fill-18" fill="#172D54"></path>
            <polygon id="Fill-20" fill="#172D54" points="336.826 42.5689 370.775 42.5689 370.775 49.7649 344.872 49.7649 344.872 61.6699 367.832 61.6699 367.832 68.8649 344.872 68.8649 344.872 81.1629 371.102 81.1629 371.102 88.3589 336.826 88.3589"></polygon>
            <polygon id="Fill-22" fill="#172D54" points="184.8212 103.085 176.8592 103.085 176.8592 96.64 200.1392 96.64 200.1392 103.085 192.1772 103.085 192.1772 123.181 184.8212 123.181"></polygon>
            <polygon id="Fill-24" fill="#172D54" points="204.8759 96.6397 226.2229 96.6397 226.2229 102.8957 212.1559 102.8957 212.1559 106.9137 224.8969 106.9137 224.8969 112.7157 212.1559 112.7157 212.1559 116.9247 226.4129 116.9247 226.4129 123.1807 204.8759 123.1807"></polygon>
            <path d="M247.3017,112.7159 L244.3447,105.1709 L241.3497,112.7159 L247.3017,112.7159 Z M240.8567,96.4489 L247.9477,96.4489 L259.2447,123.1809 L251.3597,123.1809 L249.4257,118.4419 L239.1887,118.4419 L237.2927,123.1809 L229.5577,123.1809 L240.8567,96.4489 Z" id="Fill-26" fill="#172D54"></path>
            <path d="M260.7216,109.9864 L260.7216,109.9104 C260.7216,102.1744 266.6746,96.1094 274.7126,96.1094 C280.1346,96.1094 283.6226,98.3834 285.9736,101.6444 L280.4376,105.9284 C278.9206,104.0334 277.1766,102.8194 274.6356,102.8194 C270.9206,102.8194 268.3046,105.9664 268.3046,109.8344 L268.3046,109.9104 C268.3046,113.8914 270.9206,117.0014 274.6356,117.0014 C277.4046,117.0014 279.0346,115.7114 280.6276,113.7774 L286.1626,117.7204 C283.6606,121.1714 280.2856,123.7124 274.4096,123.7124 C266.8256,123.7124 260.7216,117.9104 260.7216,109.9864" id="Fill-28" fill="#172D54"></path>
            <polygon id="Fill-30" fill="#172D54" points="290.8241 96.6397 298.1791 96.6397 298.1791 106.5737 307.6211 106.5737 307.6211 96.6397 314.9761 96.6397 314.9761 123.1807 307.6211 123.1807 307.6211 113.0957 298.1791 113.0957 298.1791 123.1807 290.8241 123.1807"></polygon>
            <polygon id="Fill-32" fill="#172D54" points="321.1923 96.6397 342.5393 96.6397 342.5393 102.8957 328.4713 102.8957 328.4713 106.9137 341.2123 106.9137 341.2123 112.7157 328.4713 112.7157 328.4713 116.9247 342.7283 116.9247 342.7283 123.1807 321.1923 123.1807"></polygon>
            <path d="M360.205,109.379 C362.707,109.379 364.148,108.166 364.148,106.233 L364.148,106.156 C364.148,104.07 362.632,103.01 360.167,103.01 L355.351,103.01 L355.351,109.379 L360.205,109.379 Z M347.996,96.64 L360.546,96.64 C364.602,96.64 367.409,97.701 369.191,99.522 C370.745,101.038 371.542,103.085 371.542,105.701 L371.542,105.777 C371.542,109.834 369.38,112.526 366.082,113.93 L372.414,123.181 L363.921,123.181 L358.574,115.143 L355.351,115.143 L355.351,123.181 L347.996,123.181 L347.996,96.64 Z" id="Fill-34" fill="#172D54"></path>
        </g>
    </g>
</svg>