<?xml version="1.0" encoding="UTF-8"?>
<svg width="200px" height="200px" viewBox="0 0 200 200" version="1.1" xmlns="http://www.w3.org/2000/svg" xmlns:xlink="http://www.w3.org/1999/xlink">
    <!-- Generator: Sketch 61 (89581) - https://sketch.com -->
    <title>codeTeacher-logo-laranja</title>
    <desc>Created with Sketch.</desc>
    <defs>
        <polygon id="path-1" points="0.206052632 0.240631579 74.5204737 0.240631579 74.5204737 99.2336211 0.206052632 99.2336211"></polygon>
        <polygon id="path-3" points="0.676326316 0.183978947 18.8440105 0.183978947 18.8440105 19.8947368 0.676326316 19.8947368"></polygon>
        <polygon id="path-5" points="0.471978947 0.561978947 17.9081053 0.561978947 17.9081053 19.5150316 0.471978947 19.5150316"></polygon>
    </defs>
    <g id="codeTeacher-logo-laranja" stroke="none" stroke-width="1" fill="none" fill-rule="evenodd">
        <g id="Group-38" transform="translate(21.000000, 6.000000)">
            <path d="M43.0340211,98.2032632 L43.0340211,44.0658947 C43.0340211,43.1071579 43.8108632,42.3284211 44.7705474,42.3284211 L123.359495,42.3284211 C124.319179,42.3284211 125.096968,43.1071579 125.096968,44.0658947 L125.096968,98.2032632 C125.096968,99.1638947 124.319179,99.9407368 123.359495,99.9407368 L44.7705474,99.9407368 C43.8108632,99.9407368 43.0340211,99.1638947 43.0340211,98.2032632 M139.147389,99.9407368 L130.599284,99.9407368 L130.599284,39.1395789 C130.599284,37.7687368 129.488021,36.6574737 128.117179,36.6574737 L40.0138105,36.6574737 C38.6429684,36.6574737 37.5307579,37.7687368 37.5307579,39.1395789 L37.5307579,99.9407368 L28.9826526,99.9407368 C27.6127579,99.9407368 26.5014947,101.052 26.5014947,102.422842 L26.5014947,106.395158 C26.5014947,107.766 27.6127579,108.877263 28.9826526,108.877263 L139.147389,108.877263 C140.517284,108.877263 141.628547,107.766 141.628547,106.395158 L141.628547,102.422842 C141.628547,101.052 140.517284,99.9407368 139.147389,99.9407368" id="Fill-1" fill="#EE6435"></path>
            <path d="M61.0256842,24.1743789 C61.0256842,24.1743789 51.0157895,28.1372211 42.3644211,34.1946947 C31.554,41.7641684 26.6485263,48.2460632 26.6485263,48.2460632 L33.1038947,57.4649053 C33.5283158,58.0702737 34.3837895,58.2019579 35.0147368,57.7595368 L67.104,35.2898526 C67.7358947,34.8483789 67.9045263,33.9985895 67.4801053,33.3932211 L61.0256842,24.1743789 Z" id="Fill-3" fill="#EE6435"></path>
            <g id="Group-7" transform="translate(0.000000, 0.706737)">
                <mask id="mask-2" fill="white">
                    <use xlink:href="#path-1"></use>
                </mask>
                <g id="Clip-6"></g>
                <path d="M25.3217368,45.6447789 C25.3217368,45.6447789 30.2698421,39.1354105 41.0802632,31.5668842 C49.7316316,25.5075158 59.6988947,21.5740421 59.6988947,21.5740421 L74.5204737,0.240252632 L28.7512105,13.9590947 L0.206052632,52.2763579 L5.79836842,50.7994105 L5.79836842,78.6255158 C4.77142105,79.0167789 4.03815789,80.0029895 4.03815789,81.1654105 C4.03815789,82.1809895 4.59994737,83.0554105 5.42226316,83.5243579 L3.26036842,94.9676211 C2.84163158,97.1825684 4.54121053,99.2336211 6.79689474,99.2336211 C9.05257895,99.2336211 10.7531053,97.1825684 10.3343684,94.9676211 L8.16584211,83.4902526 C8.955,83.0137263 9.48742105,82.1554105 9.48742105,81.1654105 C9.48742105,80.0020421 8.75510526,79.0158316 7.72721053,78.6255158 L7.72721053,50.2906737 L25.3217368,45.6447789 Z" id="Fill-5" fill="#EE6435" mask="url(#mask-2)"></path>
            </g>
            <polygon id="Fill-8" fill="#EE6435" points="91.1657368 57.1278316 71.6518421 88.3692 76.7183684 88.3692 96.2332105 57.1278316"></polygon>
            <polygon id="Fill-10" fill="#EE6435" points="102.703453 60.6045789 99.6216632 63.7005789 108.389558 72.4305789 96.0917684 81.3566842 98.6572421 84.8922632 115.114926 72.9468947"></polygon>
            <polygon id="Fill-12" fill="#EE6435" points="72.0388421 64.1294526 69.4724211 60.5948211 53.0156842 72.5392421 65.1552632 84.9024 68.2531579 81.8225053 59.6216842 73.1427158"></polygon>
            <path d="M0,135.572495 L0,135.479653 C0,126.184074 6.96031579,118.570074 16.8631579,118.570074 C22.8874737,118.570074 26.5310526,120.671337 29.6611579,123.662179 L25.9711579,127.912074 C23.3554737,125.483968 20.5522105,123.848811 16.8157895,123.848811 C10.5565263,123.848811 6.02526316,128.986389 6.02526316,135.385863 L6.02526316,135.479653 C6.02526316,141.878179 10.5565263,147.110495 16.8157895,147.110495 C20.8326316,147.110495 23.4018947,145.475337 26.2042105,142.859653 L29.8951579,146.597021 C26.4846316,150.146811 22.7482105,152.389232 16.6291579,152.389232 C7.09957895,152.389232 0,144.961863 0,135.572495" id="Fill-14" fill="#EE6435"></path>
            <path d="M63.5763789,135.572495 L63.5763789,135.479653 C63.5763789,129.1266 58.9522737,123.848811 52.4599579,123.848811 C45.9666947,123.848811 41.4363789,129.033758 41.4363789,135.385863 L41.4363789,135.479653 C41.4363789,141.831758 46.0604842,147.110495 52.5537474,147.110495 C59.0460632,147.110495 63.5763789,141.925547 63.5763789,135.572495 M35.4111158,135.572495 L35.4111158,135.479653 C35.4111158,126.276916 42.5106947,118.570074 52.5537474,118.570074 C62.5968,118.570074 69.6025895,126.184074 69.6025895,135.385863 L69.6025895,135.479653 C69.6025895,144.681442 62.5020632,152.389232 52.4599579,152.389232 C42.4169053,152.389232 35.4111158,144.775232 35.4111158,135.572495" id="Fill-16" fill="#EE6435"></path>
            <path d="M90.6254526,146.596832 C97.4929263,146.596832 101.976821,141.971779 101.976821,135.572305 L101.976821,135.480411 C101.976821,129.079989 97.4929263,124.362095 90.6254526,124.362095 L84.1795579,124.362095 L84.1795579,146.596832 L90.6254526,146.596832 Z M78.4347158,119.130726 L90.6254526,119.130726 C100.902505,119.130726 108.002084,126.183884 108.002084,135.385674 L108.002084,135.480411 C108.002084,144.6822 100.902505,151.8282 90.6254526,151.8282 L78.4347158,151.8282 L78.4347158,119.130726 Z" id="Fill-18" fill="#EE6435"></path>
            <polygon id="Fill-20" fill="#EE6435" points="116.8344 119.130537 141.077558 119.130537 141.077558 124.269063 122.579242 124.269063 122.579242 132.7698 138.9744 132.7698 138.9744 137.908326 122.579242 137.908326 122.579242 146.690432 141.310611 146.690432 141.310611 151.828958 116.8344 151.828958"></polygon>
            <polygon id="Fill-22" fill="#EE6435" points="8.05537895 165.029779 2.37022105 165.029779 2.37022105 160.427463 18.9946421 160.427463 18.9946421 165.029779 13.3094842 165.029779 13.3094842 179.379568 8.05537895 179.379568"></polygon>
            <polygon id="Fill-24" fill="#EE6435" points="22.3769368 160.427084 37.6210421 160.427084 37.6210421 164.894874 27.5751474 164.894874 27.5751474 167.764453 36.6727263 167.764453 36.6727263 171.907295 27.5751474 171.907295 27.5751474 174.912347 37.7555684 174.912347 37.7555684 179.380137 22.3769368 179.380137"></polygon>
            <path d="M52.6723579,171.907484 L50.5606737,166.5198 L48.4224632,171.907484 L52.6723579,171.907484 Z M48.0700421,160.2918 L53.1327789,160.2918 L61.2015158,179.380326 L55.5703579,179.380326 L54.1900421,175.995379 L46.8792,175.995379 L45.5254105,179.380326 L40.0013053,179.380326 L48.0700421,160.2918 Z" id="Fill-26" fill="#EE6435"></path>
            <g id="Group-30" transform="translate(61.578947, 159.864632)">
                <mask id="mask-4" fill="white">
                    <use xlink:href="#path-3"></use>
                </mask>
                <g id="Clip-29"></g>
                <path d="M0.676326316,10.0934526 L0.676326316,10.0385053 C0.676326316,4.51534737 4.92716842,0.183978947 10.6672737,0.183978947 C14.5391684,0.183978947 17.0298,1.80776842 18.7085368,4.1364 L14.7551684,7.19545263 C13.6723263,5.84261053 12.4265368,4.97576842 10.6123263,4.97576842 C7.95969474,4.97576842 6.09148421,7.22387368 6.09148421,9.98450526 L6.09148421,10.0385053 C6.09148421,12.8815579 7.95969474,15.1021895 10.6123263,15.1021895 C12.5894842,15.1021895 13.7538,14.1813474 14.8915895,12.8000842 L18.8440105,15.6166105 C17.0572737,18.0807158 14.6471684,19.8949263 10.4503263,19.8949263 C5.03611579,19.8949263 0.676326316,15.7520842 0.676326316,10.0934526" id="Fill-28" fill="#EE6435" mask="url(#mask-4)"></path>
            </g>
            <polygon id="Fill-31" fill="#EE6435" points="83.7514421 160.427084 89.0046 160.427084 89.0046 167.520032 95.7460737 167.520032 95.7460737 160.427084 100.998284 160.427084 100.998284 179.380137 95.7460737 179.380137 95.7460737 172.178242 89.0046 172.178242 89.0046 179.380137 83.7514421 179.380137"></polygon>
            <polygon id="Fill-33" fill="#EE6435" points="105.436326 160.427084 120.680432 160.427084 120.680432 164.894874 110.634537 164.894874 110.634537 167.764453 119.733063 167.764453 119.733063 171.907295 110.634537 171.907295 110.634537 174.912347 120.815905 174.912347 120.815905 179.380137 105.436326 179.380137"></polygon>
            <g id="Group-37" transform="translate(124.105263, 159.864632)">
                <mask id="mask-6" fill="white">
                    <use xlink:href="#path-5"></use>
                </mask>
                <g id="Clip-36"></g>
                <path d="M9.18966316,9.65955789 C10.9773474,9.65955789 12.0061895,8.79366316 12.0061895,7.41334737 L12.0061895,7.3584 C12.0061895,5.86913684 10.9224,5.11124211 9.16313684,5.11124211 L5.72418947,5.11124211 L5.72418947,9.65955789 L9.18966316,9.65955789 Z M0.471978947,0.561978947 L9.43408421,0.561978947 C12.3301895,0.561978947 14.3348211,1.32082105 15.6071368,2.62061053 C16.7165053,3.70345263 17.2858737,5.16524211 17.2858737,7.0344 L17.2858737,7.08745263 C17.2858737,9.98450526 15.7426105,11.9067158 13.3874526,12.9099789 L17.9082947,19.5150316 L11.8441895,19.5150316 L8.02534737,13.7758737 L5.72418947,13.7758737 L5.72418947,19.5150316 L0.471978947,19.5150316 L0.471978947,0.561978947 Z" id="Fill-35" fill="#EE6435" mask="url(#mask-6)"></path>
            </g>
        </g>
    </g>
</svg>